<svg width="13" height="15" viewBox="0 0 13 15" fill="none" xmlns="http://www.w3.org/2000/svg">
<path d="M12.4632 2.70693L10.1484 3.05176e-05L9.46065 0.62072L11.071 2.51727C10.0981 2.569 9.34323 3.46555 9.46065 4.48279C9.54452 5.25865 10.1652 5.91382 10.92 6.03451C11.3394 6.08624 11.7419 6.00003 12.0606 5.77589V12.4655C12.0606 12.8966 11.7587 13.3104 11.3226 13.3449C10.8361 13.3966 10.4335 13.0173 10.4335 12.5V9.51727C10.4335 8.63796 9.74581 7.93107 8.89032 7.93107H8.48774V2.50003C8.48774 1.27589 7.51484 0.258651 6.3071 0.258651H2.18065C0.989677 0.258651 0 1.25865 0 2.50003V15H8.52129V8.8621H8.92387C9.27613 8.8621 9.56129 9.1552 9.56129 9.51727V12.4311C9.56129 13.3793 10.249 14.2069 11.1548 14.2587C12.1445 14.3276 13 13.5173 13 12.4828V4.1552C13 3.62072 12.7987 3.08624 12.4632 2.70693ZM11.2052 5.12072C10.7523 5.12072 10.3832 4.74141 10.3832 4.27589C10.3832 3.81038 10.7523 3.43107 11.2052 3.43107C11.6581 3.43107 12.0271 3.81038 12.0271 4.27589C12.0271 4.74141 11.6245 5.12072 11.2052 5.12072ZM5.30065 11.9138C5.01548 12.1897 4.64645 12.3449 4.26065 12.3449C3.87484 12.3449 3.52258 12.1897 3.22065 11.9138C2.6671 11.3621 2.6671 10.4311 3.22065 9.8621L3.99226 9.08624C4.12645 8.94831 4.36129 8.94831 4.47871 9.08624L5.25032 9.8621C5.85419 10.4138 5.85419 11.3449 5.30065 11.9138ZM1.50968 5.70693V2.91382C1.50968 2.50003 1.82839 2.17244 2.23097 2.17244H6.39097C6.79355 2.17244 7.11226 2.50003 7.11226 2.91382V5.70693H1.50968Z" fill="white"/>
</svg>
