<svg width="18" height="18" viewBox="0 0 18 18" fill="none" xmlns="http://www.w3.org/2000/svg">
<path d="M10.2983 11.8846L15.5483 17.1346L17.3945 15.2446L12.1445 9.99462L10.2983 11.8846ZM13.5533 7.33462C13.212 7.33462 12.8445 7.29087 12.5558 7.16837L2.58954 17.0909L0.743286 15.2446L7.22704 8.76962L5.67829 7.21212L5.04829 7.82462L3.77954 6.59087V9.09337L3.16704 9.70587L0.0870361 6.59087L0.699536 5.97837H3.15829L1.93329 4.74462L5.04829 1.62962C5.29027 1.38633 5.57795 1.19327 5.8948 1.06153C6.21164 0.929788 6.5514 0.861969 6.89454 0.861969C7.23768 0.861969 7.57743 0.929788 7.89428 1.06153C8.21112 1.19327 8.4988 1.38633 8.74079 1.62962L6.89454 3.51962L8.12829 4.74462L7.50704 5.36587L9.07329 6.92337L10.6658 5.27837C10.5433 4.98962 10.4908 4.62212 10.4908 4.29837C10.4873 3.89441 10.564 3.49377 10.7165 3.11966C10.8689 2.74555 11.0941 2.40541 11.379 2.11894C11.6638 1.83247 12.0026 1.60537 12.3759 1.45078C12.7491 1.29619 13.1493 1.2172 13.5533 1.21837C14.0695 1.21837 14.5245 1.34087 14.9358 1.58587L12.5995 3.92212L13.912 5.23462L16.2483 2.89837C16.4933 3.30962 16.6158 3.74712 16.6158 4.29837C16.6158 5.97837 15.2595 7.33462 13.5533 7.33462Z" fill="white"/>
</svg>
